<?xml version="1.0" encoding="UTF-8" standalone="no"?>
<!-- Created with Inkscape (http://www.inkscape.org/) -->
<svg xmlns:dc="http://purl.org/dc/elements/1.1/" xmlns:cc="http://creativecommons.org/ns#" xmlns:rdf="http://www.w3.org/1999/02/22-rdf-syntax-ns#" xmlns:svg="http://www.w3.org/2000/svg" xmlns="http://www.w3.org/2000/svg" xmlns:sodipodi="http://sodipodi.sourceforge.net/DTD/sodipodi-0.dtd" xmlns:inkscape="http://www.inkscape.org/namespaces/inkscape" id="svg2440" sodipodi:version="0.32" inkscape:version="0.46" width="384" height="160" version="1.0" sodipodi:docname="dwm-logo.svg" inkscape:output_extension="org.inkscape.output.svg.inkscape">
  <metadata id="metadata2445">
    <rdf:RDF>
      <cc:Work rdf:about="">
        <dc:format>image/svg+xml</dc:format>
        <dc:type rdf:resource="http://purl.org/dc/dcmitype/StillImage"/>
      </cc:Work>
    </rdf:RDF>
  </metadata>
  <defs id="defs2443">
    <inkscape:perspective sodipodi:type="inkscape:persp3d" inkscape:vp_x="0 : 526.18109 : 1" inkscape:vp_y="0 : 1000 : 0" inkscape:vp_z="744.09448 : 526.18109 : 1" inkscape:persp3d-origin="372.04724 : 350.78739 : 1" id="perspective2447"/>
  </defs>
  <sodipodi:namedview inkscape:window-height="1031" inkscape:window-width="1676" inkscape:pageshadow="2" inkscape:pageopacity="0.0" guidetolerance="10.0" gridtolerance="10.0" objecttolerance="10.0" borderopacity="1.0" bordercolor="#666666" pagecolor="#ffffff" id="base" showgrid="false" inkscape:zoom="1" inkscape:cx="96" inkscape:cy="40" inkscape:window-x="0" inkscape:window-y="15" inkscape:current-layer="svg2440"/>
  <path style="fill:#222222;fill-opacity:1" d="M 0,112 L 0,64 L 48,64 L 96,64 L 96,32 L 96,0 L 112,0 L 128,0 L 128,64 L 128,128 L 144,128 L 160,128 L 160,96 L 160,64 L 176,64 L 192,64 L 192,96 L 192,128 L 208,128 L 224,128 L 224,96 L 224,64 L 304,64 L 384,64 L 384,112 L 384,160 L 368,160 L 352,160 L 352,128 L 352,96 L 336,96 L 320,96 L 320,128 L 320,160 L 304,160 L 288,160 L 288,128 L 288,96 L 272,96 L 256,96 L 256,128 L 256,160 L 128,160 L 0,160 L 0,112 z M 96,112 L 96,96 L 64,96 L 32,96 L 32,112 L 32,128 L 64,128 L 96,128 L 96,112 z" id="path2451"/>
</svg>