<?xml version="1.0" encoding="UTF-8" standalone="no"?>
<!-- Created with Inkscape (http://www.inkscape.org/) -->
<svg xmlns:svg="http://www.w3.org/2000/svg" xmlns="http://www.w3.org/2000/svg" version="1.1" width="500" height="500" id="svg1871">
  <defs id="defs1873"/>
  <g transform="translate(-328.46875,-92.96875)" id="layer1">
    <path d="m 350.6875,115.1875 0,455.5625 455.5625,0 0,-455.5625 -455.5625,0 z m 52.875,54.4375 351.34375,0 0,102.28125 L 531.875,397.5625 528.4375,399.5 492.75,419.46875 c 40.58815,50.06221 107.13853,66.85921 156.8125,36.125 33.98439,-21.02675 51.99333,-59.23352 51.40625,-100.0625 l 53.9375,-30.40625 0,195.0625 -351.34375,0 0,-350.5625 z m 162.3125,45.53125 c -3.89341,-0.002 -7.7658,0.18654 -11.625,0.59375 -15.3435,1.61896 -30.17649,6.18809 -43.8125,14.625 -47.72598,29.52897 -64.01662,92.96087 -41.53125,149.90625 l 199.875,-112.25 C 642.0824,234.12511 603.51128,215.17875 565.875,215.15625 z" id="rect3363" style="fill:#000000;fill-rule:evenodd;stroke:none"/>
  </g>
</svg>