<?xml version="1.0" encoding="UTF-8" standalone="no"?>
<svg
   xmlns:dc="http://purl.org/dc/elements/1.1/"
   xmlns:cc="http://creativecommons.org/ns#"
   xmlns:rdf="http://www.w3.org/1999/02/22-rdf-syntax-ns#"
   xmlns:svg="http://www.w3.org/2000/svg"
   xmlns="http://www.w3.org/2000/svg"
   xmlns:sodipodi="http://sodipodi.sourceforge.net/DTD/sodipodi-0.dtd"
   xmlns:inkscape="http://www.inkscape.org/namespaces/inkscape"
   width="320"
   height="320"
   viewBox="0 0 256 256"
   version="1.1"
   id="svg2"
   inkscape:version="0.48.3.1 r9886"
   sodipodi:docname="pekwm_11.svg">
  <metadata
     id="metadata2011">
    <rdf:RDF>
      <cc:Work
         rdf:about="">
        <dc:format>image/svg+xml</dc:format>
        <dc:type
           rdf:resource="http://purl.org/dc/dcmitype/StillImage" />
      </cc:Work>
    </rdf:RDF>
  </metadata>
  <defs
     id="defs2009" />
  <sodipodi:namedview
     pagecolor="#ffffff"
     bordercolor="#666666"
     borderopacity="1"
     objecttolerance="10"
     gridtolerance="10"
     guidetolerance="10"
     inkscape:pageopacity="0"
     inkscape:pageshadow="2"
     inkscape:window-width="1920"
     inkscape:window-height="1150"
     id="namedview2007"
     showgrid="false"
     inkscape:zoom="0.40625"
     inkscape:cx="1644.7498"
     inkscape:cy="682.66791"
     inkscape:window-x="0"
     inkscape:window-y="0"
     inkscape:window-maximized="1"
     inkscape:current-layer="svg2" />
  <g
     id="g6021"
     transform="matrix(0.63461539,0,0,0.6198704,-4.4303673e-6,923.67658)">
    <path
       style="fill:#ff7f00;fill-opacity:1;fill-rule:nonzero;stroke:none"
       d="m 0,-1526.6462 409.6,0 0,455.8769 -409.6,0 z m 0,0"
       id="path5"
       inkscape:connector-curvature="0" />
    <g
       transform="matrix(0.76964924,-0.63846696,0.63846696,0.76964924,912.11675,-208.09042)"
       id="g5989">
      <path
         inkscape:connector-curvature="0"
         id="path907"
         d="m 215.04297,-1264 c 0,44.7578 -36.28516,81.043 -81.04297,81.043 -44.757812,0 -81.042969,-36.2852 -81.042969,-81.043 0,-44.7578 36.285157,-81.043 81.042969,-81.043 44.75781,0 81.04297,36.2852 81.04297,81.043 z m 0,0"
         style="fill:#ffffff;fill-opacity:1;fill-rule:nonzero;stroke:none" />
      <path
         inkscape:connector-curvature="0"
         id="path909"
         d="m 216.22266,-1264 c 0,45.4102 -36.8125,82.2227 -82.22266,82.2227 -45.410156,0 -82.222656,-36.8125 -82.222656,-82.2227 0,-45.4102 36.8125,-82.2227 82.222656,-82.2227 45.41016,0 82.22266,36.8125 82.22266,82.2227 z m 0,0"
         style="fill:#ff7f00;fill-opacity:1;fill-rule:nonzero;stroke:none" />
      <path
         inkscape:connector-curvature="0"
         id="path911"
         d="m 152.44141,-1264 c 0,10.1836 -8.25782,18.4414 -18.44141,18.4414 -10.18359,0 -18.44141,-8.2578 -18.44141,-18.4414 0,-10.1836 8.25782,-18.4414 18.44141,-18.4414 10.18359,0 18.44141,8.2578 18.44141,18.4414 z m 0,0"
         style="fill:#ffffff;fill-opacity:1;fill-rule:nonzero;stroke:none" />
      <path
         inkscape:connector-curvature="0"
         id="path913"
         d="m 150.1875,-1264 c 0,8.9414 -7.24609,16.1875 -16.1875,16.1875 -8.94141,0 -16.1875,-7.2461 -16.1875,-16.1875 0,-8.9414 7.24609,-16.1875 16.1875,-16.1875 8.94141,0 16.1875,7.2461 16.1875,16.1875 z m 0,0"
         style="fill:#ff7f00;fill-opacity:1;fill-rule:nonzero;stroke:none" />
      <path
         inkscape:connector-curvature="0"
         id="path915"
         d="m 254.05469,-1264 c 0,66.3047 -53.75,120.0547 -120.05469,120.0547 -66.304688,0 -120.054688,-53.75 -120.054688,-120.0547 0,-66.3047 53.75,-120.0547 120.054688,-120.0547 66.30469,0 120.05469,53.75 120.05469,120.0547 z m 0,0"
         style="fill:#ffffff;fill-opacity:1;fill-rule:nonzero;stroke:none" />
      <path
         inkscape:connector-curvature="0"
         id="path917"
         d="m 136.05078,-1264 c 0,2.7344 -4.10156,2.7344 -4.10156,0 0,-2.7344 4.10156,-2.7344 4.10156,0 z m 0,0"
         style="fill:#ff7f00;fill-opacity:1;fill-rule:nonzero;stroke:none" />
      <path
         inkscape:connector-curvature="0"
         id="path919"
         d="m 146.51562,-1264 c 0,6.9141 -5.60156,12.5156 -12.51562,12.5156 -6.91406,0 -12.51562,-5.6015 -12.51562,-12.5156 0,-6.9141 5.60156,-12.5156 12.51562,-12.5156 6.91406,0 12.51562,5.6015 12.51562,12.5156 z m 0,0"
         style="fill:#ffffff;fill-opacity:1;fill-rule:nonzero;stroke:none" />
      <path
         inkscape:connector-curvature="0"
         id="path921"
         d="m 219.63672,-1264 c 0,47.293 -38.34375,85.6367 -85.63672,85.6367 -47.292969,0 -85.636719,-38.3437 -85.636719,-85.6367 0,-47.293 38.34375,-85.6367 85.636719,-85.6367 47.29297,0 85.63672,38.3437 85.63672,85.6367 z m 0,0"
         style="fill:#ff7f00;fill-opacity:1;fill-rule:nonzero;stroke:none" />
      <path
         inkscape:connector-curvature="0"
         id="path923"
         d="m 243.70312,-1264 c 0,60.5859 -49.11718,109.7031 -109.70312,109.7031 -60.585938,0 -109.703125,-49.1172 -109.703125,-109.7031 0,-60.5859 49.117187,-109.7031 109.703125,-109.7031 60.58594,0 109.70312,49.1172 109.70312,109.7031 z m 0,0"
         style="fill:#ffffff;fill-opacity:1;fill-rule:nonzero;stroke:none" />
      <path
         inkscape:connector-curvature="0"
         id="path925"
         d="m 201.45703,-1264 c 0,37.2539 -30.20312,67.457 -67.45703,67.457 -37.253906,0 -67.457031,-30.2031 -67.457031,-67.457 0,-37.2539 30.203125,-67.457 67.457031,-67.457 37.25391,0 67.45703,30.2031 67.45703,67.457 z m 0,0"
         style="fill:#ff7f00;fill-opacity:1;fill-rule:nonzero;stroke:none" />
      <path
         inkscape:connector-curvature="0"
         id="path1267"
         d="m 285.05859,-1213 c 0,68.5156 -55.54297,124.0586 -124.05859,124.0586 -68.515625,0 -124.058594,-55.543 -124.058594,-124.0586 0,-68.5156 55.542969,-124.0586 124.058594,-124.0586 68.51562,0 124.05859,55.543 124.05859,124.0586 z m 0,0"
         style="fill:#ffffff;fill-opacity:1;fill-rule:nonzero;stroke:none" />
      <path
         inkscape:connector-curvature="0"
         id="path1269"
         d="m 271.25781,-1213 c 0,60.8945 -49.36328,110.2578 -110.25781,110.2578 -60.89453,0 -110.257812,-49.3633 -110.257812,-110.2578 0,-60.8945 49.363282,-110.2578 110.257812,-110.2578 60.89453,0 110.25781,49.3633 110.25781,110.2578 z m 0,0"
         style="fill:#ff7f00;fill-opacity:1;fill-rule:nonzero;stroke:none" />
      <path
         inkscape:connector-curvature="0"
         id="path1271"
         d="m 261.07812,-1213 c 0,55.2695 -44.80859,100.0781 -100.07812,100.0781 -55.26953,0 -100.078125,-44.8086 -100.078125,-100.0781 0,-55.2695 44.808595,-100.0781 100.078125,-100.0781 55.26953,0 100.07812,44.8086 100.07812,100.0781 z m 0,0"
         style="fill:#ffffff;fill-opacity:1;fill-rule:nonzero;stroke:none" />
      <path
         inkscape:connector-curvature="0"
         id="path1273"
         d="m 262.69141,-1213 c 0,56.1641 -45.52735,101.6914 -101.69141,101.6914 -56.16406,0 -101.691406,-45.5273 -101.691406,-101.6914 0,-56.1641 45.527346,-101.6914 101.691406,-101.6914 56.16406,0 101.69141,45.5273 101.69141,101.6914 z m 0,0"
         style="fill:#ff7f00;fill-opacity:1;fill-rule:nonzero;stroke:none" />
      <path
         inkscape:connector-curvature="0"
         id="path1275"
         d="m 263.84375,-1213 c 0,56.8008 -46.04297,102.8437 -102.84375,102.8437 -56.80078,0 -102.84375,-46.0429 -102.84375,-102.8437 0,-56.8008 46.04297,-102.8438 102.84375,-102.8438 56.80078,0 102.84375,46.043 102.84375,102.8438 z m 0,0"
         style="fill:#ffffff;fill-opacity:1;fill-rule:nonzero;stroke:none" />
      <path
         inkscape:connector-curvature="0"
         id="path1277"
         d="m 232.30859,-1213 c 0,39.3828 -31.92578,71.3086 -71.30859,71.3086 -39.38281,0 -71.308594,-31.9258 -71.308594,-71.3086 0,-39.3828 31.925784,-71.3086 71.308594,-71.3086 39.38281,0 71.30859,31.9258 71.30859,71.3086 z m 0,0"
         style="fill:#ff7f00;fill-opacity:1;fill-rule:nonzero;stroke:none" />
      <path
         inkscape:connector-curvature="0"
         id="path1279"
         d="m 190.30859,-1213 c 0,16.1875 -13.12109,29.3086 -29.30859,29.3086 -16.1875,0 -29.30859,-13.1211 -29.30859,-29.3086 0,-16.1875 13.12109,-29.3086 29.30859,-29.3086 16.1875,0 29.30859,13.1211 29.30859,29.3086 z m 0,0"
         style="fill:#ffffff;fill-opacity:1;fill-rule:nonzero;stroke:none" />
      <path
         inkscape:connector-curvature="0"
         id="path1281"
         d="m 200.69141,-1213 c 0,21.9219 -17.76954,39.6914 -39.69141,39.6914 -21.92188,0 -39.69141,-17.7695 -39.69141,-39.6914 0,-21.9219 17.76953,-39.6914 39.69141,-39.6914 21.92187,0 39.69141,17.7695 39.69141,39.6914 z m 0,0"
         style="fill:#ff7f00;fill-opacity:1;fill-rule:nonzero;stroke:none" />
      <path
         inkscape:connector-curvature="0"
         id="path1283"
         d="m 194.55078,-1213 c 0,18.5312 -15.01953,33.5508 -33.55078,33.5508 -18.53125,0 -33.55078,-15.0196 -33.55078,-33.5508 0,-18.5313 15.01953,-33.5508 33.55078,-33.5508 18.53125,0 33.55078,15.0195 33.55078,33.5508 z m 0,0"
         style="fill:#ffffff;fill-opacity:1;fill-rule:nonzero;stroke:none" />
      <path
         inkscape:connector-curvature="0"
         id="path1285"
         d="m 173.30078,-1213 c 0,6.793 -5.50781,12.3008 -12.30078,12.3008 -6.79297,0 -12.30078,-5.5078 -12.30078,-12.3008 0,-6.793 5.50781,-12.3008 12.30078,-12.3008 6.79297,0 12.30078,5.5078 12.30078,12.3008 z m 0,0"
         style="fill:#ff7f00;fill-opacity:1;fill-rule:nonzero;stroke:none" />
      <path
         inkscape:connector-curvature="0"
         id="path1487"
         d="m 190.93359,-1407 c 0,20.3984 -16.53515,36.9336 -36.93359,36.9336 -20.39844,0 -36.93359,-16.5352 -36.93359,-36.9336 0,-20.3984 16.53515,-36.9336 36.93359,-36.9336 20.39844,0 36.93359,16.5352 36.93359,36.9336 z m 0,0"
         style="fill:#ffffff;fill-opacity:1;fill-rule:nonzero;stroke:none" />
      <path
         inkscape:connector-curvature="0"
         id="path1489"
         d="m 259.34375,-1407 c 0,58.1797 -47.16406,105.3437 -105.34375,105.3437 -58.179688,0 -105.34375,-47.164 -105.34375,-105.3437 0,-58.1797 47.164062,-105.3438 105.34375,-105.3438 58.17969,0 105.34375,47.1641 105.34375,105.3438 z m 0,0"
         style="fill:#ff7f00;fill-opacity:1;fill-rule:nonzero;stroke:none" />
      <path
         inkscape:connector-curvature="0"
         id="path1491"
         d="m 246.83203,-1407 c 0,51.2695 -41.5625,92.832 -92.83203,92.832 -51.26953,0 -92.832031,-41.5625 -92.832031,-92.832 0,-51.2695 41.562501,-92.832 92.832031,-92.832 51.26953,0 92.83203,41.5625 92.83203,92.832 z m 0,0"
         style="fill:#ffffff;fill-opacity:1;fill-rule:nonzero;stroke:none" />
      <path
         inkscape:connector-curvature="0"
         id="path1493"
         d="m 159.32031,-1407 c 0,7.0898 -10.64062,7.0898 -10.64062,0 0,-7.0898 10.64062,-7.0898 10.64062,0 z m 0,0"
         style="fill:#ff7f00;fill-opacity:1;fill-rule:nonzero;stroke:none" />
      <path
         inkscape:connector-curvature="0"
         id="path1495"
         d="m 235.50391,-1407 c 0,45.0117 -36.49219,81.5039 -81.50391,81.5039 -45.01172,0 -81.503906,-36.4922 -81.503906,-81.5039 0,-45.0117 36.492186,-81.5039 81.503906,-81.5039 45.01172,0 81.50391,36.4922 81.50391,81.5039 z m 0,0"
         style="fill:#ffffff;fill-opacity:1;fill-rule:nonzero;stroke:none" />
      <path
         inkscape:connector-curvature="0"
         id="path1497"
         d="m 221.37891,-1407 c 0,37.2148 -30.16407,67.3789 -67.37891,67.3789 -37.21484,0 -67.378906,-30.1641 -67.378906,-67.3789 0,-37.2148 30.164066,-67.3789 67.378906,-67.3789 37.21484,0 67.37891,30.1641 67.37891,67.3789 z m 0,0"
         style="fill:#ff7f00;fill-opacity:1;fill-rule:nonzero;stroke:none" />
      <path
         inkscape:connector-curvature="0"
         id="path1499"
         d="m 237.26172,-1407 c 0,45.9844 -37.27735,83.2617 -83.26172,83.2617 -45.98437,0 -83.261719,-37.2773 -83.261719,-83.2617 0,-45.9844 37.277349,-83.2617 83.261719,-83.2617 45.98437,0 83.26172,37.2773 83.26172,83.2617 z m 0,0"
         style="fill:#ffffff;fill-opacity:1;fill-rule:nonzero;stroke:none" />
      <path
         inkscape:connector-curvature="0"
         id="path1501"
         d="m 194.64844,-1407 c 0,22.4492 -18.19922,40.6484 -40.64844,40.6484 -22.44922,0 -40.64844,-18.1992 -40.64844,-40.6484 0,-22.4492 18.19922,-40.6484 40.64844,-40.6484 22.44922,0 40.64844,18.1992 40.64844,40.6484 z m 0,0"
         style="fill:#ff7f00;fill-opacity:1;fill-rule:nonzero;stroke:none" />
      <path
         inkscape:connector-curvature="0"
         id="path1503"
         d="m 193.3125,-1407 c 0,21.7109 -17.60156,39.3125 -39.3125,39.3125 -21.71094,0 -39.3125,-17.6016 -39.3125,-39.3125 0,-21.7109 17.60156,-39.3125 39.3125,-39.3125 21.71094,0 39.3125,17.6016 39.3125,39.3125 z m 0,0"
         style="fill:#ffffff;fill-opacity:1;fill-rule:nonzero;stroke:none" />
      <path
         inkscape:connector-curvature="0"
         id="path1505"
         d="m 206.65625,-1407 c 0,29.082 -23.57422,52.6562 -52.65625,52.6562 -29.08203,0 -52.65625,-23.5742 -52.65625,-52.6562 0,-29.082 23.57422,-52.6563 52.65625,-52.6563 29.08203,0 52.65625,23.5743 52.65625,52.6563 z m 0,0"
         style="fill:#ff7f00;fill-opacity:1;fill-rule:nonzero;stroke:none" />
    </g>
  </g>
</svg>
