/* XPM */
static char * gdm_xpm[] = {
"32 32 380 2",
"  	c None",
". 	c #D4D3CA",
"+ 	c #EDE9DE",
"@ 	c #EBE8DE",
"# 	c #EAE6DE",
"$ 	c #E4E4DE",
"% 	c #E2E0DA",
"& 	c #E1DED6",
"* 	c #DBDAD6",
"= 	c #DBD7D4",
"- 	c #D7D3CF",
"; 	c #D3D2CD",
"> 	c #D0CDC7",
", 	c #CDCBC6",
"' 	c #CBC8BF",
") 	c #CAC5BF",
"! 	c #C4C2BE",
"~ 	c #C3BDB9",
"{ 	c #BBB9B5",
"] 	c #B9B5AE",
"^ 	c #ACA8A2",
"/ 	c #99978E",
"( 	c #72706C",
"_ 	c #EBE7DC",
": 	c #BAB8B8",
"< 	c #A1A1A2",
"[ 	c #A2A2A5",
"} 	c #A1A2A7",
"| 	c #A0A0A4",
"1 	c #9B9EA1",
"2 	c #999AA0",
"3 	c #97979C",
"4 	c #93949A",
"5 	c #909195",
"6 	c #8C8E93",
"7 	c #8A8C8F",
"8 	c #8A898E",
"9 	c #85878B",
"0 	c #828187",
"a 	c #7D7F82",
"b 	c #7A797F",
"c 	c #767276",
"d 	c #757475",
"e 	c #9B9893",
"f 	c #75716C",
"g 	c #EBE7DE",
"h 	c #8B8B92",
"i 	c #B6B6C2",
"j 	c #A2A1B3",
"k 	c #9898AC",
"l 	c #9192A6",
"m 	c #9395A8",
"n 	c #8D8FA3",
"o 	c #878A9C",
"p 	c #85879A",
"q 	c #838698",
"r 	c #7E7F94",
"s 	c #76788B",
"t 	c #737688",
"u 	c #727387",
"v 	c #717185",
"w 	c #6B6A7D",
"x 	c #5E5E6C",
"y 	c #4C4954",
"z 	c #827D7D",
"A 	c #767470",
"B 	c #91919B",
"C 	c #B5B7C6",
"D 	c #A0A2BB",
"E 	c #9C9DBA",
"F 	c #989AB8",
"G 	c #9598B5",
"H 	c #999DBA",
"I 	c #999CB9",
"J 	c #9396B3",
"K 	c #9698B6",
"L 	c #9194B1",
"M 	c #9395B4",
"N 	c #9497B4",
"O 	c #8F92AF",
"P 	c #8D90AD",
"Q 	c #8B8DAA",
"R 	c #7F809A",
"S 	c #6C6B81",
"T 	c #50505B",
"U 	c #7F7D7C",
"V 	c #73726D",
"W 	c #E3E2DD",
"X 	c #8C8D99",
"Y 	c #A5A7BC",
"Z 	c #9699B8",
"` 	c #9C9FC3",
" .	c #9DA0C6",
"..	c #9DA0C7",
"+.	c #9D9FC6",
"@.	c #9C9FC5",
"#.	c #9C9EC5",
"$.	c #9FA1B8",
"%.	c #A9A89E",
"&.	c #ABAA95",
"*.	c #A6A5A2",
"=.	c #9A9CC0",
"-.	c #9698BE",
";.	c #8B8CAE",
">.	c #767791",
",.	c #545662",
"'.	c #7B7B7C",
").	c #716F6E",
"!.	c #E1DED8",
"~.	c #8A8A97",
"{.	c #9A9BB2",
"].	c #999BBD",
"^.	c #AFB1D1",
"/.	c #D8D9EA",
"(.	c #E0E1EE",
"_.	c #E0E0EE",
":.	c #B1B3D6",
"<.	c #A3A5C4",
"[.	c #C3BD65",
"}.	c #CFC642",
"|.	c #D2C839",
"1.	c #CDC447",
"2.	c #B5B28B",
"3.	c #9DA0C3",
"4.	c #8F92B5",
"5.	c #797C96",
"6.	c #545564",
"7.	c #7B797E",
"8.	c #6F6C69",
"9.	c #DFDAD6",
"0.	c #8C8D9A",
"a.	c #9999B1",
"b.	c #B7B9D1",
"c.	c #F9F9FB",
"d.	c #FFFFFF",
"e.	c #F9F9FC",
"f.	c #D3CF8F",
"g.	c #D3C937",
"h.	c #CFC643",
"i.	c #ABABA5",
"j.	c #9195B8",
"k.	c #797C97",
"l.	c #525563",
"m.	c #787678",
"n.	c #6A6966",
"o.	c #DAD8D6",
"p.	c #81828F",
"q.	c #8D8FA5",
"r.	c #A1A4C2",
"s.	c #CDCFE2",
"t.	c #F7F7FB",
"u.	c #D0D1E7",
"v.	c #C9C472",
"w.	c #AEAD9A",
"x.	c #9093B7",
"y.	c #787B96",
"z.	c #515261",
"A.	c #757578",
"B.	c #696765",
"C.	c #D8D6D4",
"D.	c #838691",
"E.	c #8B8DA3",
"F.	c #9A9DBF",
"G.	c #9FA2C9",
"H.	c #A2A5CF",
"I.	c #A2A5D0",
"J.	c #A3A6D1",
"K.	c #B2B1A0",
"L.	c #D1C83B",
"M.	c #C9C156",
"N.	c #A7A8B3",
"O.	c #8F92B6",
"P.	c #777995",
"Q.	c #505060",
"R.	c #757276",
"S.	c #666260",
"T.	c #D3D2CF",
"U.	c #7B7D88",
"V.	c #878A9F",
"W.	c #9598BA",
"X.	c #A1A4CF",
"Y.	c #A3A6CC",
"Z.	c #B8B589",
"`.	c #CCC44D",
" +	c #D2C83B",
".+	c #C8C157",
"++	c #ADADAA",
"@+	c #9EA1C8",
"#+	c #8F91B5",
"$+	c #767894",
"%+	c #4C4D5D",
"&+	c #716E72",
"*+	c #646160",
"=+	c #D2CEC9",
"-+	c #757882",
";+	c #84869C",
">+	c #989BBD",
",+	c #9DA1C8",
"'+	c #A1A4CE",
")+	c #D3D4E9",
"!+	c #9DA0C9",
"~+	c #8E90B4",
"{+	c #747691",
"]+	c #4A4A5B",
"^+	c #6F6C71",
"/+	c #646061",
"(+	c #CFCBC8",
"_+	c #72747F",
":+	c #7F8297",
"<+	c #9194B4",
"[+	c #999DC3",
"}+	c #9EA1CA",
"|+	c #9FA2CB",
"1+	c #D1D2E5",
"2+	c #F8F8FB",
"3+	c #D0D2E5",
"4+	c #9EA0C9",
"5+	c #9DA0C8",
"6+	c #999CC4",
"7+	c #898CAE",
"8+	c #71728D",
"9+	c #464655",
"0+	c #6A6A6C",
"a+	c #605F5E",
"b+	c #CBC9C1",
"c+	c #6B6E76",
"d+	c #787B8D",
"e+	c #878BA6",
"f+	c #9093B4",
"g+	c #9497BA",
"h+	c #9496BA",
"i+	c #9496BB",
"j+	c #9395BA",
"k+	c #9294B9",
"l+	c #9194B8",
"m+	c #898CAF",
"n+	c #7B7D9C",
"o+	c #64657D",
"p+	c #3E3E4B",
"q+	c #666367",
"r+	c #605C5C",
"s+	c #CCC6BF",
"t+	c #65676E",
"u+	c #6D717D",
"v+	c #7B7D93",
"w+	c #7F829B",
"x+	c #82849F",
"y+	c #8283A0",
"z+	c #81819E",
"A+	c #80809E",
"B+	c #7D7F9B",
"C+	c #7C7E99",
"D+	c #7A7C98",
"E+	c #797B97",
"F+	c #777895",
"G+	c #747591",
"H+	c #515164",
"I+	c #30303B",
"J+	c #605D61",
"K+	c #5E595A",
"L+	c #C7C5BC",
"M+	c #67696C",
"N+	c #73737B",
"O+	c #848491",
"P+	c #817F90",
"Q+	c #7F808F",
"R+	c #828292",
"S+	c #7D7D8E",
"T+	c #7E7F8E",
"U+	c #747684",
"V+	c #808190",
"W+	c #6E707E",
"X+	c #767786",
"Y+	c #6E6E7E",
"Z+	c #767686",
"`+	c #717382",
" @	c #70727F",
".@	c #6B6A78",
"+@	c #64646F",
"@@	c #403F45",
"#@	c #625E61",
"$@	c #5C5757",
"%@	c #C0BCB1",
"&@	c #A6A5A3",
"*@	c #989693",
"=@	c #969394",
"-@	c #939195",
";@	c #929090",
">@	c #8E8C8E",
",@	c #8C8A8F",
"'@	c #8B878A",
")@	c #848386",
"!@	c #848287",
"~@	c #807D80",
"{@	c #7D7B80",
"]@	c #7C797F",
"^@	c #77747A",
"/@	c #757278",
"(@	c #707072",
"_@	c #6B686C",
":@	c #646064",
"<@	c #635F61",
"[@	c #757070",
"}@	c #504F4B",
"|@	c #6E6B63",
"1@	c #989A92",
"2@	c #A4A399",
"3@	c #A5A49F",
"4@	c #A4A199",
"5@	c #A09C96",
"6@	c #A28B85",
"7@	c #9F908B",
"8@	c #949089",
"9@	c #9B7C77",
"0@	c #928A84",
"a@	c #948480",
"b@	c #947B74",
"c@	c #8B8585",
"d@	c #858180",
"e@	c #7A7874",
"f@	c #82866B",
"g@	c #889C43",
"h@	c #7A7965",
"i@	c #696766",
"j@	c #595E5B",
"k@	c #2C2C29",
"l@	c #323A33",
"m@	c #414139",
"n@	c #3C3C3A",
"o@	c #565652",
"p@	c #616059",
"q@	c #76736F",
"r@	c #75726A",
"s@	c #6A6963",
"t@	c #807E76",
"u@	c #737169",
"v@	c #78736B",
"w@	c #7A7873",
"x@	c #676460",
"y@	c #686661",
"z@	c #5F5B59",
"A@	c #3D3C3A",
"B@	c #292726",
"C@	c #282626",
"D@	c #1F2120",
"E@	c #1A2121",
"F@	c #000000",
"G@	c #353633",
"H@	c #3A3936",
"I@	c #5C5854",
"J@	c #65655F",
"K@	c #6E6D67",
"L@	c #63635D",
"M@	c #696863",
"N@	c #696963",
"O@	c #676762",
"P@	c #716D66",
"Q@	c #656460",
"R@	c #6C6860",
"S@	c #736D69",
"T@	c #62625C",
"U@	c #3C3B38",
"V@	c #22221F",
"W@	c #1F1E1C",
"X@	c #767C75",
"Y@	c #908F87",
"Z@	c #98928B",
"`@	c #92918A",
" #	c #939086",
".#	c #8B8B84",
"+#	c #8C8985",
"@#	c #8C877F",
"##	c #86827D",
"$#	c #85807E",
"%#	c #847E7D",
"&#	c #7E7B77",
"*#	c #7E7973",
"=#	c #76756F",
"-#	c #64625A",
";#	c #57534E",
"                                                                ",
"                                                                ",
"                                                                ",
"                                                                ",
"                                                                ",
"                                                                ",
"          . + @ # $ % & * = - ; > , ' ) ! ~ { ] ^ / (           ",
"          _ : < [ } | 1 2 3 4 5 6 7 8 9 0 a b c d e f           ",
"          g h i j k l m n o p q r r s t u v w x y z A           ",
"          # B C D E F G H I J K L M N O P Q R S T U V           ",
"          W X Y Z `  ... .+.@.#.$.%.&.*.=.-.;.>.,.'.).          ",
"          !.~.{.].^./.(._./.:.<.[.}.|.1.2.3.4.5.6.7.8.          ",
"          9.0.a.b.c.d.d.d.d.e.f.g.g.g.g.h.i.j.k.l.m.n.          ",
"          o.p.q.r.s.t.d.d.t.u.v.g.g.g.g.|.w.x.y.z.A.B.          ",
"          C.D.E.F.G.H.I.J.J.J.K.L.g.g.g.M.N.O.P.Q.R.S.          ",
"          T.U.V.W...X.I.I.I.I.Y.Z.`. +.+++@+#+$+%+&+*+          ",
"          =+-+;+>+,+'+H.)+e.d.d.e.)+H.X.'+!+~+{+]+^+/+          ",
"          (+_+:+<+[+}+|+1+2+d.d.2+3+}+4+5+6+7+8+9+0+a+          ",
"          b+c+d+e+f+g+h+i+j+j+k+l+x.O.#+~+m+n+o+p+q+r+          ",
"          s+t+u+v+w+x+y+z+A+B+C+D+E+P.F+G+8+o+H+I+J+K+          ",
"          L+M+N+O+P+Q+R+S+T+U+V+W+X+Y+Z+`+ @.@+@@@#@$@          ",
"          %@&@*@=@-@;@>@,@'@)@!@~@{@]@^@/@(@_@:@<@[@}@          ",
"          |@1@2@3@4@5@6@7@8@9@0@a@b@c@d@e@f@g@h@i@j@k@          ",
"            l@m@n@o@p@q@r@s@t@u@v@w@x@y@z@A@B@C@D@E@F@          ",
"              G@H@I@J@K@L@M@N@O@P@Q@R@S@T@U@V@W@F@F@            ",
"              X@Y@Z@`@ #.#+#@###$#%#&#*#=#8.-#;#                ",
"                  F@F@F@F@F@F@F@F@F@F@F@F@F@F@F@                ",
"                                                                ",
"                                                                ",
"                                                                ",
"                                                                ",
"                                                                "};
