/* XPM */
static char * login_photo_xpm[] = {
"32 32 308 2",
"  	c None",
". 	c #FFFFFF",
"+ 	c #CECDC7",
"@ 	c #6C6A56",
"# 	c #6B6955",
"$ 	c #6A6954",
"% 	c #686853",
"& 	c #676752",
"* 	c #646650",
"= 	c #636650",
"- 	c #61654E",
"; 	c #60644D",
"> 	c #5D634C",
", 	c #5C634B",
"' 	c #5A624A",
") 	c #586149",
"! 	c #566047",
"~ 	c #556047",
"{ 	c #535F45",
"] 	c #515E44",
"^ 	c #8A9482",
"/ 	c #F9F9F9",
"( 	c #6C6955",
"_ 	c #696853",
": 	c #656751",
"< 	c #62654F",
"[ 	c #5E644D",
"} 	c #5B624A",
"| 	c #596149",
"1 	c #576148",
"2 	c #545F46",
"3 	c #525F45",
"4 	c #505E44",
"5 	c #899381",
"6 	c #E3E3E3",
"7 	c #5E614C",
"8 	c #575B46",
"9 	c #585C47",
"0 	c #585E48",
"a 	c #5B614A",
"b 	c #575E47",
"c 	c #545C45",
"d 	c #4F5E43",
"e 	c #4E5D42",
"f 	c #889381",
"g 	c #D3D3D3",
"h 	c #505340",
"i 	c #3D3F31",
"j 	c #464536",
"k 	c #363629",
"l 	c #343628",
"m 	c #434735",
"n 	c #3E4232",
"o 	c #3B3F31",
"p 	c #3D4533",
"q 	c #4C573F",
"r 	c #4D5D42",
"s 	c #879280",
"t 	c #D2D2D2",
"u 	c #CECDC6",
"v 	c #62644E",
"w 	c #4B4D3C",
"x 	c #514E41",
"y 	c #8E8270",
"z 	c #7B664E",
"A 	c #46311D",
"B 	c #382313",
"C 	c #352212",
"D 	c #554331",
"E 	c #887964",
"F 	c #3C3A2D",
"G 	c #25291E",
"H 	c #3D4833",
"I 	c #4B593F",
"J 	c #4C5C41",
"K 	c #4B5C40",
"L 	c #86927F",
"M 	c #CDCDC6",
"N 	c #656651",
"O 	c #525442",
"P 	c #434135",
"Q 	c #918069",
"R 	c #7B6751",
"S 	c #7F684F",
"T 	c #412C19",
"U 	c #392413",
"V 	c #2F1D0F",
"W 	c #2B1D11",
"X 	c #4C3A28",
"Y 	c #624D35",
"Z 	c #292619",
"` 	c #262D20",
" .	c #435139",
"..	c #4A5B40",
"+.	c #495B3F",
"@.	c #85917F",
"#.	c #61634E",
"$.	c #3F3F32",
"%.	c #665B49",
"&.	c #78614A",
"*.	c #8D765D",
"=.	c #6F563C",
"-.	c #543C24",
";.	c #342010",
">.	c #2E1E10",
",.	c #4A3C2E",
"'.	c #63513E",
").	c #4C3926",
"!.	c #4C3923",
"~.	c #212519",
"{.	c #35412D",
"].	c #47593E",
"^.	c #475A3E",
"/.	c #83917E",
"(.	c #CCCCC5",
"_.	c #666751",
":.	c #63654F",
"<.	c #555845",
"[.	c #3F3D31",
"}.	c #483A29",
"|.	c #866C50",
"1.	c #8B745A",
"2.	c #7D6348",
"3.	c #47311D",
"4.	c #2F1E10",
"5.	c #3C2D1F",
"6.	c #988572",
"7.	c #A08970",
"8.	c #725D48",
"9.	c #463424",
"0.	c #26261A",
"a.	c #303B29",
"b.	c #465A3D",
"c.	c #83907D",
"d.	c #5F624D",
"e.	c #5F5E49",
"f.	c #40382A",
"g.	c #4B3A26",
"h.	c #80674E",
"i.	c #765F46",
"j.	c #49331E",
"k.	c #402D1C",
"l.	c #4F3E2E",
"m.	c #907F6D",
"n.	c #EAD3B9",
"o.	c #D8BC9E",
"p.	c #A68B6F",
"q.	c #705C47",
"r.	c #413C2C",
"s.	c #3A4A32",
"t.	c #45593D",
"u.	c #44593C",
"v.	c #81907C",
"w.	c #CBCCC4",
"x.	c #62654E",
"y.	c #5D614B",
"z.	c #8D8368",
"A.	c #8B755E",
"B.	c #624B33",
"C.	c #84694D",
"D.	c #553E27",
"E.	c #3D2C1C",
"F.	c #594A3B",
"G.	c #CBB49D",
"H.	c #F2D6B8",
"I.	c #CFB293",
"J.	c #8A735B",
"K.	c #574838",
"L.	c #333124",
"M.	c #3A4B33",
"N.	c #42583B",
"O.	c #CACBC4",
"P.	c #60654E",
"Q.	c #857C63",
"R.	c #6F5F4E",
"S.	c #594430",
"T.	c #5A4127",
"U.	c #422F1E",
"V.	c #382E25",
"W.	c #181B1E",
"X.	c #3F3D3B",
"Y.	c #948370",
"Z.	c #837360",
"`.	c #5B4F43",
" +	c #1D1F21",
".+	c #322D28",
"++	c #3A3E2C",
"@+	c #41563A",
"#+	c #42583A",
"$+	c #41583A",
"%+	c #7F8F7B",
"&+	c #5E644C",
"*+	c #5C624B",
"=+	c #5E5F49",
"-+	c #907960",
";+	c #4F3D2C",
">+	c #443120",
",+	c #856C52",
"'+	c #8E7A64",
")+	c #514D49",
"!+	c #645E59",
"~+	c #B19D88",
"{+	c #66594C",
"]+	c #433B33",
"^+	c #534C43",
"/+	c #574D42",
"(+	c #3E4430",
"_+	c #40573A",
":+	c #3F5739",
"<+	c #7E8F7A",
"[+	c #C9CBC3",
"}+	c #535C44",
"|+	c #756B52",
"1+	c #927B5F",
"2+	c #A78868",
"3+	c #E6C19A",
"4+	c #F9D9B8",
"5+	c #F2D8BE",
"6+	c #F1DAC4",
"7+	c #F6DEC6",
"8+	c #BBA186",
"9+	c #433A30",
"0+	c #837260",
"a+	c #645749",
"b+	c #3B4B33",
"c+	c #3F5738",
"d+	c #3D5638",
"e+	c #7D8E79",
"f+	c #59624A",
"g+	c #4B533D",
"h+	c #675E48",
"i+	c #EBC49B",
"j+	c #F8D0A5",
"k+	c #EECEAB",
"l+	c #ECD2B6",
"m+	c #FADFC4",
"n+	c #F5DABE",
"o+	c #89755F",
"p+	c #29221B",
"q+	c #786756",
"r+	c #594C3F",
"s+	c #3D5236",
"t+	c #3D5637",
"u+	c #3B5536",
"v+	c #7C8E79",
"w+	c #C8CBC3",
"x+	c #4B503B",
"y+	c #AA8D6E",
"z+	c #DFB890",
"A+	c #D7B38D",
"B+	c #85705A",
"C+	c #A28C75",
"D+	c #C5A687",
"E+	c #957B60",
"F+	c #645240",
"G+	c #514336",
"H+	c #41392B",
"I+	c #3F5638",
"J+	c #3A5536",
"K+	c #7B8D78",
"L+	c #C8CAC2",
"M+	c #4D5A41",
"N+	c #675C47",
"O+	c #AE8F70",
"P+	c #DFB88F",
"Q+	c #CBA782",
"R+	c #6D5945",
"S+	c #45392C",
"T+	c #3C3126",
"U+	c #362C22",
"V+	c #3A2F25",
"W+	c #3A402D",
"X+	c #3C5637",
"Y+	c #385334",
"Z+	c #7A8D77",
"`+	c #C7CAC2",
" @	c #525E45",
".@	c #4C593F",
"+@	c #5B5640",
"@@	c #BF9D79",
"#@	c #B39272",
"$@	c #93785D",
"%@	c #886F56",
"&@	c #6F5A46",
"*@	c #434330",
"=@	c #3A5435",
"-@	c #385434",
";@	c #375333",
">@	c #7A8C77",
",@	c #C6CAC2",
"'@	c #4F5D43",
")@	c #49583D",
"!@	c #52503B",
"~@	c #705C46",
"{@	c #876E55",
"]@	c #836A52",
"^@	c #705A46",
"/@	c #524C38",
"(@	c #3D4F34",
"_@	c #395435",
":@	c #FDFDFD",
"<@	c #FEFEFE",
"[@	c #FCFCFC",
"}@	c #F4F4F4",
"|@	c #D8D8D8",
"1@	c #D1D1D1",
"2@	c #D0D0D0",
"3@	c #A5A5A5",
"                                                                ",
"                                                                ",
"      . . . . . . . . . . . . . . . . . . . . . . . .           ",
"      . . . . . . . . . . . . . . . . . . . . . . . .           ",
"      . + @ @ @ # $ % & * = - ; > , ' ) ! ~ { ] ^ . /           ",
"      . + @ @ ( $ _ & : = < ; [ , } | 1 ~ 2 3 4 5 . 6           ",
"      . + @ # $ % & * 7 8 9 0 a b c ~ ~ { 3 d e f . g           ",
"      . + @ $ _ & * h i j k l m n o p q ] 4 e r s . t           ",
"      . u $ % & v w x y z A B C D E F G H I J K L . t           ",
"      . M _ & N O P Q R S T U V W X Y Z `  ...+.@.. t           ",
"      . M & N #.$.%.&.*.=.-.;.>.,.'.).!.~.{.].^./.. t           ",
"      . (._.:.<.[.}.|.1.2.3.4.5.6.7.8.9.0.a.^.b.c.. t           ",
"      . (.* d.e.f.g.h.i.j.k.l.m.n.o.p.q.r.s.t.u.v.. t           ",
"      . w.x.y.z.A.B.C.D.E.l.F.G.H.I.J.K.L.M.u.N.v.. t           ",
"      . O.P.a Q.R.S.T.U.V.W.X.Y.Z.`. +.+++@+#+$+%+. t           ",
"      . O.&+*+=+-+;+>+,+'+)+!+~+{+]+^+/+(+N._+:+<+. t           ",
"      . [+> } }+|+1+2+3+4+5+6+7+8+9+0+a+b+$+c+d+e+. t           ",
"      . [+} f+1 g+h+i+j+k+l+m+n+o+p+q+r+s+:+t+u+v+. t           ",
"      . w+| 1 ! 2 x+y+z+A+B+C+D+E+F+G+H+I+d+u+J+K+. t           ",
"      . L+) ~ ~ { M+N+O+P+Q+R+S+T+U+V+W+d+X+J+Y+Z+. t           ",
"      . `+! 2  @4 d .@+@E+@@#@$@%@&@*@d+u+=@-@;@>@. t           ",
"      . ,@~ { 4 '@e J )@!@~@{@]@^@/@(@X+J+_@;@;@>@. t           ",
"      . . . . . :@. . . . . . . . . . . . . <@. . . t           ",
"      . . . . . <@<@. . . . . . . . . . . . <@. . . t           ",
"      . . . . . . . :@. . . . . . . . . . [@. . . . t           ",
"      . . . . . . . . . . . . . . . . . <@<@. . . . t           ",
"      }@|@1@2@2@2@2@2@2@2@2@2@2@2@2@2@2@2@2@2@2@2@2@3@          ",
"                                                                ",
"                                                                ",
"                                                                ",
"                                                                ",
"                                                                "};
